<mxfile host="65bd71144e" modified="2020-11-18T15:31:00.245Z" agent="5.0 (Macintosh; Intel Mac OS X 10_16_0) AppleWebKit/537.36 (KHTML, like Gecko) Code/1.51.1 Chrome/83.0.4103.122 Electron/9.3.3 Safari/537.36" etag="i1I6AR8zLOaHOA-tky6J" version="13.6.5">
    <diagram name="Page-1" id="6133507b-19e7-1e82-6fc7-422aa6c4b21f">
        <mxGraphModel dx="1760" dy="1172" grid="1" gridSize="10" guides="1" tooltips="1" connect="1" arrows="1" fold="1" page="1" pageScale="1" pageWidth="1100" pageHeight="850" math="0" shadow="0">
            <root>
                <mxCell id="0"/>
                <mxCell id="1" parent="0"/>
                <mxCell id="b94bc138ca980ef-7" style="edgeStyle=orthogonalEdgeStyle;rounded=0;html=1;labelBackgroundColor=none;startArrow=none;startFill=0;startSize=8;endArrow=open;endFill=0;endSize=16;fontFamily=Verdana;fontSize=12;" parent="1" edge="1">
                    <mxGeometry relative="1" as="geometry">
                        <Array as="points">
                            <mxPoint x="505" y="256"/>
                            <mxPoint x="505" y="256"/>
                        </Array>
                        <mxPoint x="430" y="256" as="targetPoint"/>
                    </mxGeometry>
                </mxCell>
                <mxCell id="b94bc138ca980ef-17" value="1..*" style="text;html=1;resizable=0;points=[];align=center;verticalAlign=middle;fontSize=12;fontFamily=Verdana" parent="b94bc138ca980ef-7" vertex="1" connectable="0">
                    <mxGeometry x="0.8576" y="2" relative="1" as="geometry">
                        <mxPoint x="-2" y="-22" as="offset"/>
                    </mxGeometry>
                </mxCell>
                <mxCell id="b94bc138ca980ef-18" value="1" style="text;html=1;resizable=0;points=[];align=center;verticalAlign=middle;fontSize=12;fontFamily=Verdana" parent="b94bc138ca980ef-7" vertex="1" connectable="0">
                    <mxGeometry x="0.3629" y="152" relative="1" as="geometry">
                        <mxPoint x="150" y="-164" as="offset"/>
                    </mxGeometry>
                </mxCell>
                <mxCell id="b94bc138ca980ef-8" style="edgeStyle=orthogonalEdgeStyle;rounded=0;html=1;labelBackgroundColor=none;startArrow=none;startFill=0;startSize=8;endArrow=none;endFill=0;endSize=16;fontFamily=Verdana;fontSize=12;" parent="1" edge="1">
                    <mxGeometry relative="1" as="geometry">
                        <Array as="points">
                            <mxPoint x="565" y="191"/>
                            <mxPoint x="565" y="191"/>
                        </Array>
                        <mxPoint x="195" y="191" as="targetPoint"/>
                    </mxGeometry>
                </mxCell>
                <mxCell id="b94bc138ca980ef-15" value="0..1" style="text;html=1;resizable=0;points=[];align=center;verticalAlign=middle;fontSize=12;fontFamily=Verdana" parent="b94bc138ca980ef-8" vertex="1" connectable="0">
                    <mxGeometry x="-0.5745" y="-86" relative="1" as="geometry">
                        <mxPoint x="80" y="71" as="offset"/>
                    </mxGeometry>
                </mxCell>
                <mxCell id="b94bc138ca980ef-16" value="1" style="text;html=1;resizable=0;points=[];align=center;verticalAlign=middle;fontSize=12;fontFamily=Verdana" parent="b94bc138ca980ef-8" vertex="1" connectable="0">
                    <mxGeometry x="0.8917" y="-1" relative="1" as="geometry">
                        <mxPoint x="-15" y="-19" as="offset"/>
                    </mxGeometry>
                </mxCell>
                <mxCell id="b94bc138ca980ef-12" style="edgeStyle=orthogonalEdgeStyle;rounded=0;html=1;dashed=1;labelBackgroundColor=none;startArrow=none;startFill=0;startSize=8;endArrow=open;endFill=0;endSize=16;fontFamily=Verdana;fontSize=12;" parent="1" edge="1">
                    <mxGeometry relative="1" as="geometry">
                        <mxPoint x="180" y="406" as="sourcePoint"/>
                    </mxGeometry>
                </mxCell>
                <mxCell id="2" value="&lt;p style=&quot;margin: 0px ; margin-top: 4px ; text-align: center&quot;&gt;&lt;i&gt;&amp;lt;&amp;lt;Interface&amp;gt;&amp;gt;&lt;/i&gt;&lt;br&gt;&lt;b&gt;DataStore&lt;/b&gt;&lt;/p&gt;&lt;hr size=&quot;1&quot;&gt;&lt;p style=&quot;margin: 0px ; margin-left: 4px&quot;&gt;+ name: Type&lt;br&gt;+ field2: connection_string&lt;/p&gt;&lt;p style=&quot;margin: 0px ; margin-left: 4px&quot;&gt;&lt;br&gt;&lt;/p&gt;&lt;hr size=&quot;1&quot;&gt;&lt;p style=&quot;margin: 0px ; margin-left: 4px&quot;&gt;+ method1(Type): read&lt;br&gt;+ method2(Type, Type): write&lt;/p&gt;" style="verticalAlign=top;align=left;overflow=fill;fontSize=12;fontFamily=Helvetica;html=1;" vertex="1" parent="1">
                    <mxGeometry x="180" y="40" width="190" height="140" as="geometry"/>
                </mxCell>
                <mxCell id="3" value="&lt;p style=&quot;margin: 0px ; margin-top: 4px ; text-align: center&quot;&gt;&lt;b&gt;MongoDB&lt;/b&gt;&lt;/p&gt;&lt;hr size=&quot;1&quot;&gt;&lt;p style=&quot;margin: 0px ; margin-left: 4px&quot;&gt;+ field: Type&lt;/p&gt;&lt;hr size=&quot;1&quot;&gt;&lt;p style=&quot;margin: 0px ; margin-left: 4px&quot;&gt;+ method(): Type&lt;/p&gt;" style="verticalAlign=top;align=left;overflow=fill;fontSize=12;fontFamily=Helvetica;html=1;" vertex="1" parent="1">
                    <mxGeometry x="36" y="270" width="170" height="90" as="geometry"/>
                </mxCell>
                <mxCell id="4" value="&lt;p style=&quot;margin: 0px ; margin-top: 4px ; text-align: center&quot;&gt;&lt;b&gt;Elastic&lt;/b&gt;&lt;/p&gt;&lt;hr size=&quot;1&quot;&gt;&lt;p style=&quot;margin: 0px ; margin-left: 4px&quot;&gt;+ field: Type&lt;/p&gt;&lt;hr size=&quot;1&quot;&gt;&lt;p style=&quot;margin: 0px ; margin-left: 4px&quot;&gt;+ method(): Type&lt;/p&gt;" style="verticalAlign=top;align=left;overflow=fill;fontSize=12;fontFamily=Helvetica;html=1;" vertex="1" parent="1">
                    <mxGeometry x="360" y="270" width="160" height="90" as="geometry"/>
                </mxCell>
                <mxCell id="6" value="&lt;p style=&quot;margin: 0px ; margin-top: 4px ; text-align: center&quot;&gt;&lt;i&gt;&amp;lt;&amp;lt;Interface&amp;gt;&amp;gt;&lt;/i&gt;&lt;br&gt;&lt;b&gt;CloudStorage&lt;/b&gt;&lt;/p&gt;&lt;hr size=&quot;1&quot;&gt;&lt;p style=&quot;margin: 0px ; margin-left: 4px&quot;&gt;+ field1: Type&lt;br&gt;+ field2: Type&lt;/p&gt;&lt;hr size=&quot;1&quot;&gt;&lt;p style=&quot;margin: 0px ; margin-left: 4px&quot;&gt;+ method1(Type): Type&lt;br&gt;+ method2(Type, Type): Type&lt;/p&gt;" style="verticalAlign=top;align=left;overflow=fill;fontSize=12;fontFamily=Helvetica;html=1;" vertex="1" parent="1">
                    <mxGeometry x="720" y="40" width="190" height="140" as="geometry"/>
                </mxCell>
                <mxCell id="8" value="" style="endArrow=block;dashed=1;endFill=0;endSize=12;html=1;exitX=0.5;exitY=0;exitDx=0;exitDy=0;entryX=0;entryY=0.5;entryDx=0;entryDy=0;" edge="1" parent="1" source="3" target="2">
                    <mxGeometry width="160" relative="1" as="geometry">
                        <mxPoint x="14" y="150" as="sourcePoint"/>
                        <mxPoint x="174" y="150" as="targetPoint"/>
                        <Array as="points">
                            <mxPoint x="120" y="110"/>
                        </Array>
                    </mxGeometry>
                </mxCell>
                <mxCell id="9" value="" style="endArrow=block;dashed=1;endFill=0;endSize=12;html=1;exitX=0.5;exitY=0;exitDx=0;exitDy=0;entryX=1;entryY=0.5;entryDx=0;entryDy=0;" edge="1" parent="1" source="4" target="2">
                    <mxGeometry width="160" relative="1" as="geometry">
                        <mxPoint x="444" y="260" as="sourcePoint"/>
                        <mxPoint x="604" y="260" as="targetPoint"/>
                        <Array as="points">
                            <mxPoint x="440" y="110"/>
                        </Array>
                    </mxGeometry>
                </mxCell>
                <mxCell id="10" value="" style="endArrow=block;dashed=1;endFill=0;endSize=12;html=1;entryX=0;entryY=0.5;entryDx=0;entryDy=0;exitX=0.5;exitY=0;exitDx=0;exitDy=0;" edge="1" parent="1" source="12" target="6">
                    <mxGeometry width="160" relative="1" as="geometry">
                        <mxPoint x="640" y="280" as="sourcePoint"/>
                        <mxPoint x="850" y="240" as="targetPoint"/>
                        <Array as="points">
                            <mxPoint x="660" y="110"/>
                        </Array>
                    </mxGeometry>
                </mxCell>
                <mxCell id="11" value="" style="endArrow=block;dashed=1;endFill=0;endSize=12;html=1;entryX=1;entryY=0.5;entryDx=0;entryDy=0;" edge="1" parent="1" target="6">
                    <mxGeometry width="160" relative="1" as="geometry">
                        <mxPoint x="990" y="280" as="sourcePoint"/>
                        <mxPoint x="940" y="270" as="targetPoint"/>
                        <Array as="points">
                            <mxPoint x="990" y="110"/>
                        </Array>
                    </mxGeometry>
                </mxCell>
                <mxCell id="12" value="&lt;p style=&quot;margin: 0px ; margin-top: 4px ; text-align: center&quot;&gt;&lt;b&gt;S3&lt;/b&gt;&lt;/p&gt;&lt;hr size=&quot;1&quot;&gt;&lt;p style=&quot;margin: 0px ; margin-left: 4px&quot;&gt;+ field: Type&lt;/p&gt;&lt;hr size=&quot;1&quot;&gt;&lt;p style=&quot;margin: 0px ; margin-left: 4px&quot;&gt;+ method(): Type&lt;/p&gt;" style="verticalAlign=top;align=left;overflow=fill;fontSize=12;fontFamily=Helvetica;html=1;rounded=0;sketch=0;" vertex="1" parent="1">
                    <mxGeometry x="580" y="270" width="160" height="90" as="geometry"/>
                </mxCell>
                <mxCell id="13" value="&lt;p style=&quot;margin: 0px ; margin-top: 4px ; text-align: center&quot;&gt;&lt;b&gt;GoogleCloud&lt;/b&gt;&lt;/p&gt;&lt;hr size=&quot;1&quot;&gt;&lt;p style=&quot;margin: 0px ; margin-left: 4px&quot;&gt;+ field: Type&lt;/p&gt;&lt;hr size=&quot;1&quot;&gt;&lt;p style=&quot;margin: 0px ; margin-left: 4px&quot;&gt;+ method(): Type&lt;/p&gt;" style="verticalAlign=top;align=left;overflow=fill;fontSize=12;fontFamily=Helvetica;html=1;rounded=0;sketch=0;" vertex="1" parent="1">
                    <mxGeometry x="910" y="270" width="160" height="90" as="geometry"/>
                </mxCell>
                <mxCell id="14" value="&lt;p style=&quot;margin: 0px ; margin-top: 4px ; text-align: center&quot;&gt;&lt;i&gt;&amp;lt;&amp;lt;Interface&amp;gt;&amp;gt;&lt;/i&gt;&lt;br&gt;&lt;b&gt;Trasformation&lt;/b&gt;&lt;/p&gt;&lt;hr size=&quot;1&quot;&gt;&lt;p style=&quot;margin: 0px ; margin-left: 4px&quot;&gt;+ field1: Type&lt;br&gt;+ field2: Type&lt;/p&gt;&lt;hr size=&quot;1&quot;&gt;&lt;p style=&quot;margin: 0px ; margin-left: 4px&quot;&gt;+ method1(Type): Type&lt;br&gt;+ method2(Type, Type): Type&lt;/p&gt;" style="verticalAlign=top;align=left;overflow=fill;fontSize=12;fontFamily=Helvetica;html=1;rounded=0;sketch=0;" vertex="1" parent="1">
                    <mxGeometry x="440" y="760" width="190" height="140" as="geometry"/>
                </mxCell>
                <mxCell id="15" value="&lt;p style=&quot;margin: 0px ; margin-top: 4px ; text-align: center&quot;&gt;&lt;b&gt;Data&lt;/b&gt;&lt;/p&gt;&lt;hr size=&quot;1&quot;&gt;&lt;p style=&quot;margin: 0px ; margin-left: 4px&quot;&gt;+ field: Type&lt;/p&gt;&lt;hr size=&quot;1&quot;&gt;&lt;p style=&quot;margin: 0px ; margin-left: 4px&quot;&gt;+ method(): Type&lt;/p&gt;" style="verticalAlign=top;align=left;overflow=fill;fontSize=12;fontFamily=Helvetica;html=1;rounded=0;sketch=0;" vertex="1" parent="1">
                    <mxGeometry x="100" y="610" width="160" height="90" as="geometry"/>
                </mxCell>
                <mxCell id="16" value="&lt;p style=&quot;margin: 0px ; margin-top: 4px ; text-align: center&quot;&gt;&lt;b&gt;Control&lt;/b&gt;&lt;/p&gt;&lt;hr size=&quot;1&quot;&gt;&lt;p style=&quot;margin: 0px ; margin-left: 4px&quot;&gt;+ field: Type&lt;/p&gt;&lt;hr size=&quot;1&quot;&gt;&lt;p style=&quot;margin: 0px ; margin-left: 4px&quot;&gt;+ method(): Type&lt;/p&gt;" style="verticalAlign=top;align=left;overflow=fill;fontSize=12;fontFamily=Helvetica;html=1;rounded=0;sketch=0;" vertex="1" parent="1">
                    <mxGeometry x="455" y="480" width="160" height="90" as="geometry"/>
                </mxCell>
                <mxCell id="18" value="Use" style="endArrow=open;endSize=12;dashed=1;html=1;entryX=0.5;entryY=1;entryDx=0;entryDy=0;exitX=0;exitY=0.5;exitDx=0;exitDy=0;" edge="1" parent="1" source="16" target="2">
                    <mxGeometry width="160" relative="1" as="geometry">
                        <mxPoint x="160" y="560" as="sourcePoint"/>
                        <mxPoint x="320" y="560" as="targetPoint"/>
                        <Array as="points">
                            <mxPoint x="275" y="520"/>
                        </Array>
                    </mxGeometry>
                </mxCell>
                <mxCell id="19" value="Use" style="endArrow=open;endSize=12;dashed=1;html=1;entryX=0.5;entryY=1;entryDx=0;entryDy=0;exitX=1;exitY=0.5;exitDx=0;exitDy=0;" edge="1" parent="1" source="16">
                    <mxGeometry width="160" relative="1" as="geometry">
                        <mxPoint x="995" y="515" as="sourcePoint"/>
                        <mxPoint x="800" y="180" as="targetPoint"/>
                        <Array as="points">
                            <mxPoint x="800" y="520"/>
                        </Array>
                    </mxGeometry>
                </mxCell>
                <mxCell id="20" value="Use" style="endArrow=open;endSize=12;dashed=1;html=1;entryX=0.5;entryY=0;entryDx=0;entryDy=0;exitX=0.5;exitY=1;exitDx=0;exitDy=0;" edge="1" parent="1" source="16" target="14">
                    <mxGeometry width="160" relative="1" as="geometry">
                        <mxPoint x="625" y="535" as="sourcePoint"/>
                        <mxPoint x="810" y="190" as="targetPoint"/>
                        <Array as="points"/>
                    </mxGeometry>
                </mxCell>
                <mxCell id="21" value="Use" style="endArrow=open;endSize=12;dashed=1;html=1;entryX=0.624;entryY=-0.041;entryDx=0;entryDy=0;exitX=0.25;exitY=1;exitDx=0;exitDy=0;entryPerimeter=0;" edge="1" parent="1" source="2" target="15">
                    <mxGeometry width="160" relative="1" as="geometry">
                        <mxPoint x="270" y="180" as="sourcePoint"/>
                        <mxPoint x="220" y="480" as="targetPoint"/>
                        <Array as="points">
                            <mxPoint x="228" y="400"/>
                            <mxPoint x="200" y="400"/>
                        </Array>
                    </mxGeometry>
                </mxCell>
                <mxCell id="22" value="Use" style="endArrow=open;endSize=12;dashed=1;html=1;entryX=0.5;entryY=1;entryDx=0;entryDy=0;exitX=0;exitY=0.5;exitDx=0;exitDy=0;" edge="1" parent="1" source="14" target="15">
                    <mxGeometry x="-0.0263" y="4" width="160" relative="1" as="geometry">
                        <mxPoint x="300" y="740" as="sourcePoint"/>
                        <mxPoint x="210" y="620" as="targetPoint"/>
                        <Array as="points">
                            <mxPoint x="180" y="830"/>
                        </Array>
                        <mxPoint as="offset"/>
                    </mxGeometry>
                </mxCell>
                <mxCell id="23" value="Use" style="endArrow=open;endSize=12;dashed=1;html=1;exitX=0.75;exitY=1;exitDx=0;exitDy=0;" edge="1" parent="1" source="6" target="15">
                    <mxGeometry x="-0.0263" y="4" width="160" relative="1" as="geometry">
                        <mxPoint x="970" y="680" as="sourcePoint"/>
                        <mxPoint x="730" y="630" as="targetPoint"/>
                        <mxPoint as="offset"/>
                        <Array as="points">
                            <mxPoint x="850" y="650"/>
                        </Array>
                    </mxGeometry>
                </mxCell>
                <mxCell id="24" value="&lt;p style=&quot;margin: 0px ; margin-top: 4px ; text-align: center&quot;&gt;&lt;b&gt;Service&lt;/b&gt;&lt;/p&gt;&lt;hr size=&quot;1&quot;&gt;&lt;p style=&quot;margin: 0px ; margin-left: 4px&quot;&gt;+ field: Type&lt;/p&gt;&lt;hr size=&quot;1&quot;&gt;&lt;p style=&quot;margin: 0px ; margin-left: 4px&quot;&gt;+ method(): Type&lt;/p&gt;" style="verticalAlign=top;align=left;overflow=fill;fontSize=12;fontFamily=Helvetica;html=1;rounded=0;sketch=0;" vertex="1" parent="1">
                    <mxGeometry x="455" y="10" width="160" height="90" as="geometry"/>
                </mxCell>
                <mxCell id="25" value="Extends" style="endArrow=block;endSize=16;endFill=0;html=1;entryX=0;entryY=0.25;entryDx=0;entryDy=0;exitX=1;exitY=0.25;exitDx=0;exitDy=0;" edge="1" parent="1" source="2" target="24">
                    <mxGeometry width="160" relative="1" as="geometry">
                        <mxPoint x="290" y="20" as="sourcePoint"/>
                        <mxPoint x="450" y="20" as="targetPoint"/>
                    </mxGeometry>
                </mxCell>
                <mxCell id="26" value="Extends" style="endArrow=block;endSize=16;endFill=0;html=1;entryX=1;entryY=0.25;entryDx=0;entryDy=0;exitX=0;exitY=0.25;exitDx=0;exitDy=0;" edge="1" parent="1" source="6" target="24">
                    <mxGeometry width="160" relative="1" as="geometry">
                        <mxPoint x="380" y="85" as="sourcePoint"/>
                        <mxPoint x="465" y="42.5" as="targetPoint"/>
                    </mxGeometry>
                </mxCell>
                <mxCell id="27" value="&lt;p style=&quot;margin: 0px ; margin-top: 4px ; text-align: center&quot;&gt;&lt;b&gt;Bson&lt;/b&gt;&lt;/p&gt;&lt;hr size=&quot;1&quot;&gt;&lt;p style=&quot;margin: 0px ; margin-left: 4px&quot;&gt;+ field: Type&lt;/p&gt;&lt;hr size=&quot;1&quot;&gt;&lt;p style=&quot;margin: 0px ; margin-left: 4px&quot;&gt;+ method(): Type&lt;/p&gt;" style="verticalAlign=top;align=left;overflow=fill;fontSize=12;fontFamily=Helvetica;html=1;rounded=0;sketch=0;" vertex="1" parent="1">
                    <mxGeometry x="880" y="680" width="160" height="90" as="geometry"/>
                </mxCell>
                <mxCell id="28" value="&lt;p style=&quot;margin: 0px ; margin-top: 4px ; text-align: center&quot;&gt;&lt;b&gt;Json&lt;/b&gt;&lt;/p&gt;&lt;hr size=&quot;1&quot;&gt;&lt;p style=&quot;margin: 0px ; margin-left: 4px&quot;&gt;+ field: Type&lt;/p&gt;&lt;hr size=&quot;1&quot;&gt;&lt;p style=&quot;margin: 0px ; margin-left: 4px&quot;&gt;+ method(): Type&lt;/p&gt;" style="verticalAlign=top;align=left;overflow=fill;fontSize=12;fontFamily=Helvetica;html=1;rounded=0;sketch=0;" vertex="1" parent="1">
                    <mxGeometry x="880" y="800" width="160" height="90" as="geometry"/>
                </mxCell>
                <mxCell id="29" value="&lt;p style=&quot;margin: 0px ; margin-top: 4px ; text-align: center&quot;&gt;&lt;b&gt;CSV&lt;/b&gt;&lt;/p&gt;&lt;hr size=&quot;1&quot;&gt;&lt;p style=&quot;margin: 0px ; margin-left: 4px&quot;&gt;+ field: Type&lt;/p&gt;&lt;hr size=&quot;1&quot;&gt;&lt;p style=&quot;margin: 0px ; margin-left: 4px&quot;&gt;+ method(): Type&lt;/p&gt;" style="verticalAlign=top;align=left;overflow=fill;fontSize=12;fontFamily=Helvetica;html=1;rounded=0;sketch=0;" vertex="1" parent="1">
                    <mxGeometry x="880" y="920" width="160" height="90" as="geometry"/>
                </mxCell>
                <mxCell id="30" value="&lt;p style=&quot;margin: 0px ; margin-top: 4px ; text-align: center&quot;&gt;&lt;b&gt;Classifier&lt;/b&gt;&lt;/p&gt;&lt;hr size=&quot;1&quot;&gt;&lt;p style=&quot;margin: 0px ; margin-left: 4px&quot;&gt;+ field: Type&lt;/p&gt;&lt;hr size=&quot;1&quot;&gt;&lt;p style=&quot;margin: 0px ; margin-left: 4px&quot;&gt;+ method(): Type&lt;/p&gt;" style="verticalAlign=top;align=left;overflow=fill;fontSize=12;fontFamily=Helvetica;html=1;rounded=0;sketch=0;" vertex="1" parent="1">
                    <mxGeometry x="270" y="920" width="160" height="90" as="geometry"/>
                </mxCell>
                <mxCell id="32" value="Use" style="endArrow=open;endSize=12;dashed=1;html=1;entryX=0.5;entryY=0;entryDx=0;entryDy=0;exitX=0;exitY=0.75;exitDx=0;exitDy=0;" edge="1" parent="1" source="16" target="30">
                    <mxGeometry width="160" relative="1" as="geometry">
                        <mxPoint x="545" y="580" as="sourcePoint"/>
                        <mxPoint x="545" y="700" as="targetPoint"/>
                        <Array as="points">
                            <mxPoint x="350" y="548"/>
                        </Array>
                    </mxGeometry>
                </mxCell>
                <mxCell id="33" value="Extends" style="endArrow=block;endSize=16;endFill=0;html=1;exitX=0;exitY=0.75;exitDx=0;exitDy=0;entryX=1;entryY=0.25;entryDx=0;entryDy=0;" edge="1" parent="1" source="27" target="14">
                    <mxGeometry width="160" relative="1" as="geometry">
                        <mxPoint x="510" y="980" as="sourcePoint"/>
                        <mxPoint x="670" y="980" as="targetPoint"/>
                        <Array as="points">
                            <mxPoint x="790" y="795"/>
                        </Array>
                    </mxGeometry>
                </mxCell>
                <mxCell id="34" value="Extends" style="endArrow=block;endSize=16;endFill=0;html=1;exitX=0;exitY=0.5;exitDx=0;exitDy=0;entryX=1;entryY=0.5;entryDx=0;entryDy=0;" edge="1" parent="1" source="28" target="14">
                    <mxGeometry x="-0.1138" width="160" relative="1" as="geometry">
                        <mxPoint x="750" y="767.5" as="sourcePoint"/>
                        <mxPoint x="640" y="735" as="targetPoint"/>
                        <Array as="points">
                            <mxPoint x="800" y="830"/>
                        </Array>
                        <mxPoint x="1" as="offset"/>
                    </mxGeometry>
                </mxCell>
                <mxCell id="35" value="Extends" style="endArrow=block;endSize=16;endFill=0;html=1;exitX=0;exitY=0.5;exitDx=0;exitDy=0;entryX=1;entryY=1;entryDx=0;entryDy=0;" edge="1" parent="1" source="29" target="14">
                    <mxGeometry width="160" relative="1" as="geometry">
                        <mxPoint x="760" y="777.5" as="sourcePoint"/>
                        <mxPoint x="650" y="745" as="targetPoint"/>
                        <Array as="points">
                            <mxPoint x="800" y="900"/>
                        </Array>
                    </mxGeometry>
                </mxCell>
            </root>
        </mxGraphModel>
    </diagram>
</mxfile>